<svg width="32" height="32" viewBox="0 0 32 32" fill="none" xmlns="http://www.w3.org/2000/svg">
<rect width="32" height="32" rx="6" fill="black"/>
<g clip-path="url(#clip0_848_2)">
<path d="M16.3992 13.2451L16.8702 16.7449C16.8702 16.7449 17.9648 18.5984 18.3122 21.409C18.6473 24.1171 18.2031 25.6077 18.1002 26.1139C17.9974 26.62 17.5658 27.3131 18.3529 27.4017C19.1401 27.4902 20.3676 27.1288 20.8756 26.825C21.384 26.5231 21.4424 25.3842 21.4369 24.9304C21.4208 23.8081 21.1272 21.7372 20.3318 19.7939C19.7218 18.3003 18.5516 15.7638 18.5516 15.7638L16.3992 13.2451Z" fill="#99C23B"/>
<path d="M16.1673 12.7465C16.1673 12.7465 16.4752 10.0755 17.9427 7.80681C19.3493 5.63361 21.0343 4.68095 22.444 4.21771C23.998 3.70674 24.6515 3.59988 24.9634 3.74279C25.2752 3.8857 25.2385 4.21364 25.2977 4.48582C25.7167 6.43296 26.2867 8.95114 24.4429 11.7194C22.4738 14.6717 20.8126 15.4583 18.9364 16.0306C17.0616 16.6006 17.1076 15.6858 17.1076 15.6858L16.1673 12.7465Z" fill="#99C23B"/>
<path d="M3.91858 13.527C3.91653 13.8831 6.5136 17.5488 10.2546 18.1288C14.2827 18.7554 17.5601 16.6953 17.5601 16.6953L17.1418 13.018L16.1653 12.747C16.1653 12.747 13.8723 11.0373 11.6272 10.6809C9.29989 10.3114 6.83388 10.7312 5.33759 11.952C4.39959 12.7192 3.92038 13.3381 3.91858 13.527Z" fill="#99C23B"/>
<path d="M19.3513 9.26029C18.0153 11.6646 17.5455 13.9163 17.5603 14.4772C17.5751 15.038 17.8721 14.9564 17.9972 14.6927C18.2226 14.217 18.9186 12.1074 20.1545 9.9852C21.225 8.15008 22.9894 6.04664 23.2255 5.62515C23.3723 5.36308 23.1072 5.12158 22.8439 5.30542C22.5803 5.48739 20.7174 6.80152 19.3513 9.26029Z" fill="#E6DC9F"/>
<path d="M11.2606 12.8541C8.54306 12.4776 6.70379 12.961 6.3488 13.1628C5.99381 13.3647 6.09406 13.7765 6.55581 13.7423C7.01756 13.7081 8.8935 13.5304 11.3622 13.9071C13.9977 14.3114 16.0141 15.3055 16.3586 15.4265C16.7012 15.5478 16.8302 15.1454 16.4949 14.873C16.239 14.6685 14.2577 13.269 11.2606 12.8541Z" fill="#E6DC9F"/>
</g>
<defs>
<clipPath id="clip0_848_2">
<rect width="24.4155" height="24.4155" fill="white" transform="translate(2 6.70142) rotate(-11.1019)"/>
</clipPath>
</defs>
</svg>
